<svg width="0" height="0" class="hidden">
  <symbol xmlns="http://www.w3.org/2000/svg" viewBox="0 0 24 25" id="facebook">
    <path d="M24 12.5733C24 5.90541 18.6274 0.5 12 0.5C5.37258 0.5 0 5.90541 0 12.5733C0 18.5995 4.38823 23.5943 10.125 24.5V16.0633H7.07813V12.5733H10.125V9.91343C10.125 6.88755 11.9165 5.21615 14.6576 5.21615C15.9705 5.21615 17.3438 5.45195 17.3438 5.45195V8.42313H15.8306C14.3399 8.42313 13.875 9.35379 13.875 10.3086V12.5733H17.2031L16.6711 16.0633H13.875V24.5C19.6118 23.5943 24 18.5995 24 12.5733Z"></path>
  </symbol>

  <symbol fill="none" xmlns="http://www.w3.org/2000/svg" viewBox="0 0 42 42" id="decor">
    <g clip-path="url(#clip0_22728_11883)">
      <circle opacity="0.5" cx="21" cy="21" r="20" stroke="white" stroke-width="2"></circle>
      <path d="M12 18L21 27L30 18" stroke="white" stroke-width="2"></path>
    </g>
    <defs>
      <clipPath id="clip0_22728_11883">
        <rect width="42" height="42" fill="white"></rect>
      </clipPath>
    </defs>
  </symbol> 
</svg>



